<svg width="15" height="15" viewBox="0 0 15 15" fill="none" xmlns="http://www.w3.org/2000/svg">
<path d="M10.6719 7.69945C10.6696 7.48597 10.5898 7.30206 10.4209 7.13931L5.53125 2.34902C5.38886 2.21179 5.21911 2.14286 5.01407 2.14286C4.61028 2.14286 4.28571 2.46002 4.28571 2.86783C4.28571 3.06658 4.36657 3.25052 4.50657 3.39341L8.92093 7.69827L4.50657 12.0055C4.3677 12.1472 4.28571 12.3271 4.28571 12.5322C4.28571 12.9388 4.61028 13.2571 5.01407 13.2571C5.21684 13.2571 5.38886 13.1882 5.53125 13.0458L10.4209 8.25954C10.591 8.09165 10.6719 7.91175 10.6719 7.69945Z" fill="white"/>
</svg>
