<svg width="200" height="200" viewBox="0 0 200 200" fill="none" xmlns="http://www.w3.org/2000/svg">
<path d="M100 200C73.4783 200 48.043 189.464 29.2893 170.711C10.5357 151.957 -7.37783e-07 126.522 0 100C7.37783e-07 73.4783 10.5357 48.043 29.2893 29.2893C48.043 10.5357 73.4784 -3.16267e-07 100 0V40C84.087 40 68.8258 46.3214 57.5736 57.5736C46.3214 68.8258 40 84.087 40 100C40 115.913 46.3214 131.174 57.5736 142.426C68.8258 153.679 84.087 160 100 160L100 200Z" fill="#383736"/>
<circle cx="98.4001" cy="20" r="20" fill="#FEA421"/>
<circle cx="98.4001" cy="20" r="20" fill="#FF9D0D"/>
<path d="M100 0C122.462 2.67855e-07 144.27 7.56229 161.909 21.4683C179.549 35.3743 191.993 54.8142 197.237 76.6555C202.481 98.4967 200.218 121.467 190.814 141.866C181.41 162.265 165.413 178.903 145.399 189.101C125.385 199.298 102.521 202.461 80.491 198.079C58.4607 193.696 38.5472 182.025 23.9594 164.945C9.37156 147.865 0.95894 126.371 0.0770954 103.926C-0.804749 81.4814 5.89554 59.3935 19.0983 41.2215L51.459 64.7329C43.5373 75.6361 39.5171 88.8888 40.0463 102.356C40.5754 115.822 45.6229 128.719 54.3756 138.967C63.1283 149.215 75.0764 156.218 88.2946 158.847C101.513 161.476 115.231 159.579 127.239 153.46C139.248 147.342 148.846 137.359 154.489 125.12C160.131 112.88 161.488 99.098 158.342 85.9933C155.196 72.8885 147.729 61.2246 137.146 52.881C126.562 44.5374 113.477 40 100 40V0Z" fill="url(#paint0_angular_88_115)"/>
<circle cx="36" cy="52" r="20" fill="#FF9D0E"/>
<defs>
<radialGradient id="paint0_angular_88_115" cx="0" cy="0" r="1" gradientUnits="userSpaceOnUse" gradientTransform="translate(100 100) rotate(90) scale(100)">
<stop offset="0.40625" stop-color="#FF9700"/>
<stop offset="1" stop-color="#FBB044"/>
</radialGradient>
</defs>
</svg>
