<svg width="200" height="200" viewBox="0 0 200 200" fill="none" xmlns="http://www.w3.org/2000/svg">
<path d="M100 200C73.4783 200 48.043 189.464 29.2893 170.711C10.5357 151.957 -7.37783e-07 126.522 0 100C7.37783e-07 73.4783 10.5357 48.043 29.2893 29.2893C48.043 10.5357 73.4784 -3.16267e-07 100 0V40C84.087 40 68.8258 46.3214 57.5736 57.5736C46.3214 68.8258 40 84.087 40 100C40 115.913 46.3214 131.174 57.5736 142.426C68.8258 153.679 84.087 160 100 160L100 200Z" fill="#383736"/>
<circle cx="98.4001" cy="20" r="20" fill="#FEA421"/>
<circle cx="98.4001" cy="20" r="20" fill="#FF9D0D"/>
<path d="M100 0C117.11 2.04034e-07 133.934 4.39011 148.862 12.7504C163.79 21.1107 176.324 33.1615 185.264 47.7501C194.204 62.3388 199.251 78.9772 199.923 96.074C200.595 113.171 196.868 130.154 189.101 145.399C181.333 160.644 169.783 173.641 155.557 183.147C141.331 192.653 124.903 198.349 107.846 199.692C90.7887 201.034 73.6723 197.978 58.134 190.814C42.5957 183.651 29.1553 172.621 19.0983 158.779L51.459 135.267C57.4932 143.572 65.5574 150.191 74.8804 154.489C84.2034 158.787 94.4732 160.62 104.708 159.815C114.942 159.01 124.798 155.592 133.334 149.888C141.87 144.185 148.8 136.386 153.46 127.239C158.121 118.092 160.357 107.902 159.954 97.6444C159.551 87.3863 156.522 77.4033 151.158 68.6501C145.794 59.8969 138.274 52.6664 129.317 47.6502C120.36 42.6341 110.266 40 100 40V0Z" fill="url(#paint0_angular_88_51)"/>
<circle cx="36" cy="148" r="20" fill="#FCAC38"/>
<defs>
<radialGradient id="paint0_angular_88_51" cx="0" cy="0" r="1" gradientUnits="userSpaceOnUse" gradientTransform="translate(100 100) rotate(90) scale(100)">
<stop offset="0.40625" stop-color="#FF9700"/>
<stop offset="1" stop-color="#FBB044"/>
</radialGradient>
</defs>
</svg>
