<svg width="200" height="200" viewBox="0 0 200 200" fill="none" xmlns="http://www.w3.org/2000/svg">
<path d="M100 200C73.4783 200 48.043 189.464 29.2893 170.711C10.5357 151.957 -7.37783e-07 126.522 0 100C7.37783e-07 73.4783 10.5357 48.043 29.2893 29.2893C48.043 10.5357 73.4784 -3.16267e-07 100 0V40C84.087 40 68.8258 46.3214 57.5736 57.5736C46.3214 68.8258 40 84.087 40 100C40 115.913 46.3214 131.174 57.5736 142.426C68.8258 153.679 84.087 160 100 160L100 200Z" fill="#383736"/>
<circle cx="98.4001" cy="20" r="20" fill="#FEA421"/>
<circle cx="98.4001" cy="20" r="20" fill="#FF9D0D"/>
<path d="M100 0C121.789 2.59836e-07 142.982 7.11683 160.356 20.2679C177.729 33.419 190.331 51.8847 196.246 72.856C202.16 93.8273 201.063 116.156 193.121 136.447C185.18 156.738 170.828 173.879 152.25 185.264C133.671 196.649 111.883 201.654 90.1983 199.518C68.5138 197.383 48.1203 188.223 32.1199 173.432C16.1195 158.642 5.38783 139.03 1.55734 117.58C-2.27315 96.1296 1.00719 74.0154 10.8994 54.6009L46.5396 72.7606C40.6043 84.4092 38.6361 97.6777 40.9344 110.548C43.2327 123.418 49.6717 135.185 59.2719 144.059C68.8722 152.934 81.1083 158.43 94.119 159.711C107.13 160.993 120.203 157.989 131.35 151.158C142.497 144.327 151.108 134.043 155.873 121.868C160.638 109.694 161.296 96.2964 157.747 83.7136C154.199 71.1308 146.637 60.0514 136.213 52.1608C125.789 44.2701 113.074 40 100 40V0Z" fill="url(#paint0_angular_88_107)"/>
<circle cx="28" cy="65" r="20" fill="#FF9E12"/>
<defs>
<radialGradient id="paint0_angular_88_107" cx="0" cy="0" r="1" gradientUnits="userSpaceOnUse" gradientTransform="translate(100 100) rotate(90) scale(100)">
<stop offset="0.40625" stop-color="#FF9700"/>
<stop offset="1" stop-color="#FBB044"/>
</radialGradient>
</defs>
</svg>
