<svg width="200" height="200" viewBox="0 0 200 200" fill="none" xmlns="http://www.w3.org/2000/svg">
<path d="M100 200C73.4783 200 48.043 189.464 29.2893 170.711C10.5357 151.957 -7.37783e-07 126.522 0 100C7.37783e-07 73.4783 10.5357 48.043 29.2893 29.2893C48.043 10.5357 73.4784 -3.16267e-07 100 0V40C84.087 40 68.8258 46.3214 57.5736 57.5736C46.3214 68.8258 40 84.087 40 100C40 115.913 46.3214 131.174 57.5736 142.426C68.8258 153.679 84.087 160 100 160L100 200Z" fill="#383736"/>
<circle cx="98.4001" cy="20" r="20" fill="#FEA421"/>
<circle cx="98.4001" cy="20" r="20" fill="#FF9D0D"/>
<path d="M100 0C123.136 2.75888e-07 145.555 8.02193 163.439 22.699C181.323 37.376 193.565 57.8 198.079 80.491C202.592 103.182 199.098 126.736 188.192 147.14C177.286 167.543 159.643 183.534 138.268 192.388C116.894 201.242 93.1108 202.41 70.9715 195.694C48.8322 188.978 29.7064 174.793 16.853 155.557C3.99962 136.321 -1.78616 113.222 0.48153 90.1983C2.74922 67.1741 12.9301 45.6486 29.2893 29.2893L57.5736 57.5736C47.758 67.3891 41.6495 80.3045 40.2889 94.1189C38.9283 107.933 42.3998 121.792 50.1118 133.334C57.8239 144.876 69.2993 153.387 82.5829 157.416C95.8665 161.446 110.136 160.745 122.961 155.433C135.786 150.121 146.372 140.526 152.915 128.284C159.459 116.042 161.555 101.909 158.847 88.2946C156.139 74.68 148.794 62.4256 138.064 53.6194C127.333 44.8132 113.881 40 100 40V0Z" fill="url(#paint0_angular_88_123)"/>
<circle cx="44" cy="43" r="20" fill="#FF9D0E"/>
<defs>
<radialGradient id="paint0_angular_88_123" cx="0" cy="0" r="1" gradientUnits="userSpaceOnUse" gradientTransform="translate(100 100) rotate(90) scale(100)">
<stop offset="0.40625" stop-color="#FF9700"/>
<stop offset="1" stop-color="#FBB044"/>
</radialGradient>
</defs>
</svg>
