<svg width="200" height="200" viewBox="0 0 200 200" fill="none" xmlns="http://www.w3.org/2000/svg">
<path d="M100 200C73.4783 200 48.043 189.464 29.2893 170.711C10.5357 151.957 -7.37783e-07 126.522 0 100C7.37783e-07 73.4783 10.5357 48.043 29.2893 29.2893C48.043 10.5357 73.4784 -3.16267e-07 100 0V40C84.087 40 68.8258 46.3214 57.5736 57.5736C46.3214 68.8258 40 84.087 40 100C40 115.913 46.3214 131.174 57.5736 142.426C68.8258 153.679 84.087 160 100 160L100 200Z" fill="#383736"/>
<circle cx="98.4001" cy="20" r="20" fill="#FEA421"/>
<circle cx="98.4001" cy="20" r="20" fill="#FF9D0D"/>
<path d="M100 0C117.776 2.11973e-07 135.23 4.73817 150.566 13.7266C165.901 22.715 178.564 35.6287 187.25 51.1379C195.935 66.6471 200.33 84.1911 199.981 101.963C199.632 119.736 194.552 137.094 185.264 152.25C175.976 167.406 162.816 179.813 147.14 188.192C131.463 196.572 113.836 200.621 96.074 199.923C78.3121 199.225 61.0571 193.805 46.0862 184.222C31.1152 174.638 18.9693 161.237 10.8994 145.399L46.5396 127.239C51.3816 136.742 58.6691 144.783 67.6517 150.533C76.6343 156.283 86.9872 159.535 97.6444 159.954C108.302 160.372 118.878 157.943 128.284 152.915C137.69 147.888 145.586 140.444 151.158 131.35C156.731 122.256 159.779 111.841 159.988 101.178C160.198 90.5147 157.561 79.9882 152.35 70.6827C147.138 61.3772 139.541 53.629 130.339 48.2359C121.138 42.8429 110.665 40 100 40V0Z" fill="url(#paint0_angular_88_59)"/>
<circle cx="29" cy="137" r="20" fill="#FDA82E"/>
<defs>
<radialGradient id="paint0_angular_88_59" cx="0" cy="0" r="1" gradientUnits="userSpaceOnUse" gradientTransform="translate(100 100) rotate(90) scale(100)">
<stop offset="0.40625" stop-color="#FF9700"/>
<stop offset="1" stop-color="#FBB044"/>
</radialGradient>
</defs>
</svg>
