<svg width="200" height="200" viewBox="0 0 200 200" fill="none" xmlns="http://www.w3.org/2000/svg">
<path d="M100 200C73.4783 200 48.043 189.464 29.2893 170.711C10.5357 151.957 -7.37783e-07 126.522 0 100C7.37783e-07 73.4783 10.5357 48.043 29.2893 29.2893C48.043 10.5357 73.4784 -3.16267e-07 100 0V40C84.087 40 68.8258 46.3214 57.5736 57.5736C46.3214 68.8258 40 84.087 40 100C40 115.913 46.3214 131.174 57.5736 142.426C68.8258 153.679 84.087 160 100 160L100 200Z" fill="#383736"/>
<circle cx="98.4001" cy="20" r="20" fill="#FEA421"/>
<circle cx="98.4001" cy="20" r="20" fill="#FF9D0D"/>
<path d="M100 0C121.118 2.51829e-07 141.694 6.6855 158.779 19.0983C175.863 31.5111 188.58 49.014 195.106 69.0983C201.631 89.1826 201.631 110.817 195.106 130.902C188.58 150.986 175.863 168.489 158.779 180.902C141.694 193.315 121.118 200 100 200C78.8821 200 58.3062 193.314 41.2215 180.902C24.1367 168.489 11.4201 150.986 4.89434 130.902C-1.63145 110.817 -1.63145 89.1826 4.89435 69.0983L42.9366 81.459C39.0211 93.5096 39.0211 106.49 42.9366 118.541C46.8521 130.592 54.482 141.093 64.7329 148.541C74.9837 155.989 87.3292 160 100 160C112.671 160 125.016 155.989 135.267 148.541C145.518 141.093 153.148 130.592 157.063 118.541C160.979 106.49 160.979 93.5096 157.063 81.459C153.148 69.4084 145.518 58.9067 135.267 51.459C125.016 44.0113 112.671 40 100 40V0Z" fill="url(#paint0_angular_88_99)"/>
<circle cx="24" cy="75" r="20" fill="#FEA016"/>
<defs>
<radialGradient id="paint0_angular_88_99" cx="0" cy="0" r="1" gradientUnits="userSpaceOnUse" gradientTransform="translate(100 100) rotate(90) scale(100)">
<stop offset="0.40625" stop-color="#FF9700"/>
<stop offset="1" stop-color="#FBB044"/>
</radialGradient>
</defs>
</svg>
