<svg width="200" height="200" viewBox="0 0 200 200" fill="none" xmlns="http://www.w3.org/2000/svg">
<path d="M100 200C73.4783 200 48.043 189.464 29.2893 170.711C10.5357 151.957 -7.37783e-07 126.522 0 100C7.37783e-07 73.4783 10.5357 48.043 29.2893 29.2893C48.043 10.5357 73.4784 -3.16267e-07 100 0V40C84.087 40 68.8258 46.3214 57.5736 57.5736C46.3214 68.8258 40 84.087 40 100C40 115.913 46.3214 131.174 57.5736 142.426C68.8258 153.679 84.087 160 100 160L100 200Z" fill="#383736"/>
<circle cx="98.4001" cy="20" r="20" fill="#FEA421"/>
<circle cx="98.4001" cy="20" r="20" fill="#FF9D0D"/>
<path d="M100 0C120.448 2.43834e-07 140.404 6.26821 157.179 17.9599C173.954 29.6515 186.742 46.2046 193.819 65.3883C200.896 84.572 201.923 105.464 196.76 125.249C191.597 145.034 180.493 162.761 164.945 176.041C149.396 189.32 130.151 197.514 109.802 199.518C89.4526 201.523 68.9783 197.241 51.1379 187.25C33.2975 177.258 18.9487 162.039 10.0252 143.641C1.10168 125.243 -1.96753 104.552 1.23117 84.3565L40.7387 90.6139C38.8195 102.731 40.661 115.146 46.0151 126.185C51.3692 137.223 59.9785 146.355 70.6827 152.35C81.3869 158.344 93.6716 160.914 105.881 159.711C118.09 158.509 129.638 153.592 138.967 145.624C148.296 137.657 154.958 127.021 158.056 115.149C161.154 103.278 160.538 90.7432 156.291 79.233C152.045 67.7228 144.372 57.7909 134.307 50.7759C124.242 43.7609 112.269 40 100 40V0Z" fill="url(#paint0_angular_88_91)"/>
<circle cx="21" cy="87" r="20" fill="#FEA11B"/>
<defs>
<radialGradient id="paint0_angular_88_91" cx="0" cy="0" r="1" gradientUnits="userSpaceOnUse" gradientTransform="translate(100 100) rotate(90) scale(100)">
<stop offset="0.40625" stop-color="#FF9700"/>
<stop offset="1" stop-color="#FBB044"/>
</radialGradient>
</defs>
</svg>
