<svg width="200" height="208" viewBox="0 0 200 208" fill="none" xmlns="http://www.w3.org/2000/svg">
<path d="M100 208C85.2204 208 70.6245 204.724 57.2627 198.408C43.9008 192.091 32.1051 182.891 22.7245 171.47C13.3438 160.049 6.61134 146.691 3.01155 132.357C-0.588251 118.022 -0.965884 103.068 1.90582 88.5698C4.77752 74.0719 10.8271 60.3908 19.6194 48.5108C28.4117 36.6309 39.728 26.8476 52.754 19.8648C65.78 12.882 80.1919 8.87343 94.9527 8.12746C109.713 7.38149 124.456 9.91668 138.12 15.5506L122.872 52.5304C114.674 49.15 105.828 47.6289 96.9716 48.0765C88.1152 48.5241 79.468 50.9292 71.6524 55.1189C63.8368 59.3085 57.047 65.1785 51.7716 72.3065C46.4963 79.4345 42.8665 87.6431 41.1435 96.3419C39.4205 105.041 39.647 114.013 41.8069 122.614C43.9668 131.215 48.0063 139.23 53.6347 146.082C59.2631 152.935 66.3405 158.455 74.3576 162.245C82.3747 166.034 91.1322 168 100 168L100 208Z" fill="#383736"/>
<circle cx="112" cy="29" r="20" fill="#FF9D0D"/>
<g filter="url(#filter0_d_88_155)">
<circle cx="87" cy="29" r="20" fill="#FF9905"/>
</g>
<path d="M115.363 9.18709C140.122 13.0365 162.535 26.041 178.164 45.6267C193.793 65.2123 201.499 89.9517 199.758 114.948C198.017 139.945 186.955 163.377 168.762 180.607C150.569 197.837 126.57 207.609 101.516 207.989C76.4612 208.368 52.1773 199.328 33.4701 182.658C14.763 165.987 2.99598 142.901 0.498111 117.969C-1.99976 93.0362 4.95355 68.0746 19.9818 48.0243C35.01 27.9739 57.018 14.2962 81.6497 9.69808L88.9898 49.0188C74.2108 51.7777 61.006 59.9844 51.9891 72.0146C42.9721 84.0448 38.8001 99.0218 40.2989 113.981C41.7976 128.941 48.8578 142.792 60.0821 152.795C71.3064 162.797 85.8767 168.221 100.909 167.993C115.942 167.765 130.341 161.902 141.257 151.564C152.173 141.226 158.81 127.167 159.855 112.169C160.9 97.171 156.276 82.3274 146.898 70.576C137.521 58.8246 124.073 51.0219 109.218 48.7122L115.363 9.18709Z" fill="url(#paint0_angular_88_155)"/>
<defs>
<filter id="filter0_d_88_155" x="57" y="0.5" width="60" height="60" filterUnits="userSpaceOnUse" color-interpolation-filters="sRGB">
<feFlood flood-opacity="0" result="BackgroundImageFix"/>
<feColorMatrix in="SourceAlpha" type="matrix" values="0 0 0 0 0 0 0 0 0 0 0 0 0 0 0 0 0 0 127 0" result="hardAlpha"/>
<feOffset dy="1.5"/>
<feGaussianBlur stdDeviation="5"/>
<feComposite in2="hardAlpha" operator="out"/>
<feColorMatrix type="matrix" values="0 0 0 0 0 0 0 0 0 0 0 0 0 0 0 0 0 0 0.25 0"/>
<feBlend mode="normal" in2="BackgroundImageFix" result="effect1_dropShadow_88_155"/>
<feBlend mode="normal" in="SourceGraphic" in2="effect1_dropShadow_88_155" result="shape"/>
</filter>
<radialGradient id="paint0_angular_88_155" cx="0" cy="0" r="1" gradientUnits="userSpaceOnUse" gradientTransform="translate(100 108) rotate(90) scale(100)">
<stop offset="0.40625" stop-color="#FF9700"/>
<stop offset="1" stop-color="#FBB044"/>
</radialGradient>
</defs>
</svg>
