<svg width="200" height="200" viewBox="0 0 200 200" fill="none" xmlns="http://www.w3.org/2000/svg">
<path d="M100 200C73.4783 200 48.043 189.464 29.2893 170.711C10.5357 151.957 -7.37783e-07 126.522 0 100C7.37783e-07 73.4783 10.5357 48.043 29.2893 29.2893C48.043 10.5357 73.4784 -3.16267e-07 100 0V40C84.087 40 68.8258 46.3214 57.5736 57.5736C46.3214 68.8258 40 84.087 40 100C40 115.913 46.3214 131.174 57.5736 142.426C68.8258 153.679 84.087 160 100 160L100 200Z" fill="#383736"/>
<circle cx="98.4001" cy="20" r="20" fill="#FEA421"/>
<circle cx="98.4001" cy="20" r="20" fill="#FF9D0D"/>
<path d="M100 0C115.781 1.88187e-07 131.338 3.73491 145.399 10.8993C159.46 18.0638 171.626 28.4543 180.902 41.2215C190.178 53.9886 196.3 68.7698 198.769 84.3565C201.238 99.9433 199.982 115.893 195.106 130.902C190.229 145.91 181.87 159.552 170.711 170.711C159.552 181.87 145.91 190.229 130.902 195.106C115.893 199.982 99.9433 201.238 84.3566 198.769C68.7698 196.3 53.9886 190.178 41.2215 180.902L64.7329 148.541C72.3932 154.107 81.2619 157.78 90.614 159.261C99.966 160.743 109.536 159.989 118.541 157.063C127.546 154.137 135.731 149.122 142.426 142.426C149.122 135.731 154.137 127.546 157.063 118.541C159.989 109.536 160.743 99.966 159.261 90.6139C157.78 81.2619 154.107 72.3932 148.541 64.7329C142.975 57.0726 135.676 50.8383 127.239 46.5396C118.803 42.2409 109.469 40 100 40V0Z" fill="url(#paint0_angular_88_27)"/>
<circle cx="52" cy="164" r="20" fill="#FCB043"/>
<defs>
<radialGradient id="paint0_angular_88_27" cx="0" cy="0" r="1" gradientUnits="userSpaceOnUse" gradientTransform="translate(100 100) rotate(90) scale(100)">
<stop offset="0.40625" stop-color="#FF9700"/>
<stop offset="1" stop-color="#FBB044"/>
</radialGradient>
</defs>
</svg>
