<svg width="200" height="200" viewBox="0 0 200 200" fill="none" xmlns="http://www.w3.org/2000/svg">
<path d="M100 200C73.4783 200 48.043 189.464 29.2893 170.711C10.5357 151.957 -7.37783e-07 126.522 0 100C7.37783e-07 73.4783 10.5357 48.043 29.2893 29.2893C48.043 10.5357 73.4784 -3.16267e-07 100 0V40C84.087 40 68.8258 46.3214 57.5736 57.5736C46.3214 68.8258 40 84.087 40 100C40 115.913 46.3214 131.174 57.5736 142.426C68.8258 153.679 84.087 160 100 160L100 200Z" fill="#383736"/>
<circle cx="98.4001" cy="20" r="20" fill="#FEA421"/>
<circle cx="98.4001" cy="20" r="20" fill="#FF9D0D"/>
<path d="M100 0C123.81 2.83935e-07 146.839 8.49584 164.945 23.9594C183.05 39.423 195.044 60.8394 198.769 84.3566C202.494 107.874 197.705 131.948 185.264 152.25C172.823 172.551 153.547 187.748 130.902 195.106C108.257 202.463 83.7295 201.5 61.7316 192.388C39.7338 183.276 21.709 166.614 10.8993 145.399C0.0896838 124.184 -2.7954 99.8079 2.76302 76.6554C8.32143 53.503 21.9586 33.0936 41.2215 19.0983L64.7329 51.459C53.1751 59.8562 44.9929 72.1018 41.6578 85.9933C38.3228 99.8847 40.0538 114.51 46.5396 127.239C53.0254 139.969 63.8403 149.966 77.039 155.433C90.2377 160.9 104.954 161.478 118.541 157.063C132.128 152.649 143.694 143.531 151.158 131.35C158.623 119.169 161.496 104.724 159.261 90.6139C157.026 76.5036 149.83 63.6538 138.967 54.3756C128.104 45.0975 114.286 40 100 40V0Z" fill="url(#paint0_angular_88_131)"/>
<circle cx="52" cy="36" r="20" fill="#FF9B09"/>
<defs>
<radialGradient id="paint0_angular_88_131" cx="0" cy="0" r="1" gradientUnits="userSpaceOnUse" gradientTransform="translate(100 100) rotate(90) scale(100)">
<stop offset="0.40625" stop-color="#FF9700"/>
<stop offset="1" stop-color="#FBB044"/>
</radialGradient>
</defs>
</svg>
