<svg width="200" height="200" viewBox="0 0 200 200" fill="none" xmlns="http://www.w3.org/2000/svg">
<path d="M100 200C73.4783 200 48.043 189.464 29.2893 170.711C10.5357 151.957 -7.37783e-07 126.522 0 100C7.37783e-07 73.4783 10.5357 48.043 29.2893 29.2893C48.043 10.5357 73.4784 -3.16267e-07 100 0V40C84.087 40 68.8258 46.3214 57.5736 57.5736C46.3214 68.8258 40 84.087 40 100C40 115.913 46.3214 131.174 57.5736 142.426C68.8258 153.679 84.087 160 100 160L100 200Z" fill="#383736"/>
<circle cx="98.4001" cy="20" r="20" fill="#FEA421"/>
<circle cx="98.4001" cy="20" r="20" fill="#FF9D0D"/>
<path d="M100 0C118.442 2.19921e-07 136.525 5.09994 152.25 14.736C167.974 24.372 180.728 38.1688 189.101 54.6009C197.473 71.0331 201.139 89.4605 199.692 107.846C198.245 126.231 191.742 143.858 180.902 158.779C170.062 173.699 155.307 185.33 138.268 192.388C121.23 199.445 102.572 201.654 84.3566 198.769C66.1414 195.884 49.0788 188.018 35.0552 176.041C21.0316 164.063 10.5933 148.441 4.89435 130.902L42.9366 118.541C46.356 129.065 52.619 138.438 61.0331 145.624C69.4473 152.811 79.6848 157.53 90.6139 159.261C101.543 160.992 112.738 159.667 122.961 155.433C133.184 151.198 142.037 144.219 148.541 135.267C155.045 126.315 158.947 115.739 159.815 104.708C160.683 93.6763 158.484 82.6199 153.46 72.7606C148.437 62.9013 140.785 54.6232 131.35 48.8416C121.915 43.06 111.065 40 100 40V0Z" fill="url(#paint0_angular_88_67)"/>
<circle cx="24" cy="125" r="20" fill="#FDA82E"/>
<defs>
<radialGradient id="paint0_angular_88_67" cx="0" cy="0" r="1" gradientUnits="userSpaceOnUse" gradientTransform="translate(100 100) rotate(90) scale(100)">
<stop offset="0.40625" stop-color="#FF9700"/>
<stop offset="1" stop-color="#FBB044"/>
</radialGradient>
</defs>
</svg>
