<svg width="200" height="200" viewBox="0 0 200 200" fill="none" xmlns="http://www.w3.org/2000/svg">
<path d="M100 200C73.4783 200 48.043 189.464 29.2893 170.711C10.5357 151.957 -7.37783e-07 126.522 0 100C7.37783e-07 73.4783 10.5357 48.043 29.2893 29.2893C48.043 10.5357 73.4784 -3.16267e-07 100 0V40C84.087 40 68.8258 46.3214 57.5736 57.5736C46.3214 68.8258 40 84.087 40 100C40 115.913 46.3214 131.174 57.5736 142.426C68.8258 153.679 84.087 160 100 160L100 200Z" fill="#383736"/>
<circle cx="98.4001" cy="20" r="20" fill="#FEA421"/>
<circle cx="98.4001" cy="20" r="20" fill="#FF9D0D"/>
<path d="M100 0C119.11 2.27881e-07 137.819 5.4755 153.914 15.7783C170.008 26.0811 182.814 40.7797 190.814 58.134C198.815 75.4884 201.675 94.7717 199.057 113.701C196.439 132.631 188.451 150.414 176.041 164.945C163.63 179.476 147.315 190.147 129.028 195.694C110.742 201.241 91.2482 201.433 72.856 196.246C54.4637 191.058 37.9428 180.71 25.2492 166.425C12.5555 152.141 4.22058 134.518 1.23117 115.643L40.7387 109.386C42.5323 120.711 47.5333 131.284 55.1495 139.855C62.7657 148.426 72.6782 154.635 83.7136 157.747C94.7489 160.86 106.445 160.745 117.417 157.416C128.389 154.088 138.178 147.686 145.624 138.967C153.071 130.248 157.863 119.578 159.434 108.221C161.005 96.863 159.289 85.293 154.489 74.8804C149.688 64.4678 142.005 55.6486 132.348 49.467C122.692 43.2853 111.466 40 100 40V0Z" fill="url(#paint0_angular_88_75)"/>
<circle cx="21" cy="113" r="20" fill="#FDA524"/>
<defs>
<radialGradient id="paint0_angular_88_75" cx="0" cy="0" r="1" gradientUnits="userSpaceOnUse" gradientTransform="translate(100 100) rotate(90) scale(100)">
<stop offset="0.40625" stop-color="#FF9700"/>
<stop offset="1" stop-color="#FBB044"/>
</radialGradient>
</defs>
</svg>
