<svg width="200" height="200" viewBox="0 0 200 200" fill="none" xmlns="http://www.w3.org/2000/svg">
<path d="M100 200C73.4783 200 48.043 189.464 29.2893 170.711C10.5357 151.957 -7.37783e-07 126.522 0 100C7.37783e-07 73.4783 10.5357 48.043 29.2893 29.2893C48.043 10.5357 73.4784 -3.16267e-07 100 0V40C84.087 40 68.8258 46.3214 57.5736 57.5736C46.3214 68.8258 40 84.087 40 100C40 115.913 46.3214 131.174 57.5736 142.426C68.8258 153.679 84.087 160 100 160L100 200Z" fill="#383736"/>
<circle cx="98.4001" cy="20" r="20" fill="#FEA421"/>
<circle cx="98.4001" cy="20" r="20" fill="#FF9D0D"/>
<path d="M100 0C116.445 1.96106e-07 132.636 4.05571 147.14 11.8079C161.643 19.56 174.011 30.7694 183.147 44.443C192.283 58.1166 197.907 73.8324 199.518 90.1983C201.13 106.564 198.681 123.075 192.388 138.268C186.095 153.462 176.152 166.868 163.439 177.301C150.727 187.734 135.638 194.87 119.509 198.079C103.38 201.287 86.7085 200.468 70.9716 195.694C55.2346 190.92 40.9178 182.339 29.2893 170.711L57.5736 142.426C64.5507 149.403 73.1407 154.552 82.5829 157.416C92.0251 160.281 102.028 160.772 111.705 158.847C121.383 156.922 130.436 152.64 138.064 146.381C145.691 140.121 151.657 132.077 155.433 122.961C159.209 113.845 160.678 103.939 159.711 94.119C158.744 84.2994 155.37 74.8699 149.888 66.6658C144.406 58.4616 136.986 51.736 128.284 47.0847C119.582 42.4334 109.867 40 100 40V0Z" fill="url(#paint0_angular_88_43)"/>
<circle cx="46" cy="159" r="20" fill="#FCAC38"/>
<defs>
<radialGradient id="paint0_angular_88_43" cx="0" cy="0" r="1" gradientUnits="userSpaceOnUse" gradientTransform="translate(100 100) rotate(90) scale(100)">
<stop offset="0.40625" stop-color="#FF9700"/>
<stop offset="1" stop-color="#FBB044"/>
</radialGradient>
</defs>
</svg>
