<svg width="200" height="209" viewBox="0 0 200 209" fill="none" xmlns="http://www.w3.org/2000/svg">
<path d="M100 209C85.2204 209 70.6245 205.724 57.2627 199.408C43.9008 193.091 32.1051 183.891 22.7245 172.47C13.3438 161.049 6.61134 147.691 3.01155 133.357C-0.588251 119.022 -0.965884 104.068 1.90582 89.5698C4.77752 75.0719 10.8271 61.3908 19.6194 49.5108C28.4117 37.6309 39.728 27.8476 52.754 20.8648C65.78 13.882 80.1919 9.87343 94.9527 9.12746C109.713 8.38149 124.456 10.9167 138.12 16.5506L122.872 53.5304C114.674 50.15 105.828 48.6289 96.9716 49.0765C88.1152 49.5241 79.468 51.9292 71.6524 56.1189C63.8368 60.3085 57.047 66.1785 51.7716 73.3065C46.4963 80.4345 42.8665 88.6431 41.1435 97.3419C39.4205 106.041 39.647 115.013 41.8069 123.614C43.9668 132.215 48.0063 140.23 53.6347 147.082C59.2631 153.935 66.3405 159.455 74.3576 163.245C82.3747 167.034 91.1322 169 100 169L100 209Z" fill="#FF9905"/>
<ellipse cx="117.5" cy="31.5" rx="18.5" ry="19.5" fill="#FF9D0D"/>
<g filter="url(#filter0_d_88_163)">
<circle cx="95" cy="29" r="20" fill="#FF9A06"/>
</g>
<path d="M126.825 12.6651C150.964 19.3867 171.7 34.9256 184.928 56.2063C198.157 77.487 202.914 102.959 198.259 127.579C193.603 152.2 179.874 174.176 159.789 189.158C139.704 204.139 114.726 211.034 89.7993 208.478C64.8728 205.922 41.8141 194.102 25.1873 175.356C8.56042 156.61 -0.422913 132.305 0.015293 107.251C0.453499 82.1978 10.2813 58.2218 27.5536 40.0688C44.8258 21.9157 68.2837 10.9085 93.2844 9.22575L95.9706 49.1354C80.9702 50.1451 66.8955 56.7494 56.5321 67.6413C46.1688 78.5331 40.2721 92.9187 40.0092 107.951C39.7463 122.983 45.1362 137.566 55.1124 148.813C65.0885 160.061 78.9237 167.153 93.8796 168.687C108.835 170.221 123.822 166.084 135.873 157.095C147.925 148.106 156.162 134.92 158.955 120.148C161.749 105.375 158.894 90.0922 150.957 77.3238C143.02 64.5554 130.578 55.232 116.095 51.199L126.825 12.6651Z" fill="url(#paint0_angular_88_163)"/>
<defs>
<filter id="filter0_d_88_163" x="65" y="0.5" width="60" height="60" filterUnits="userSpaceOnUse" color-interpolation-filters="sRGB">
<feFlood flood-opacity="0" result="BackgroundImageFix"/>
<feColorMatrix in="SourceAlpha" type="matrix" values="0 0 0 0 0 0 0 0 0 0 0 0 0 0 0 0 0 0 127 0" result="hardAlpha"/>
<feOffset dy="1.5"/>
<feGaussianBlur stdDeviation="5"/>
<feComposite in2="hardAlpha" operator="out"/>
<feColorMatrix type="matrix" values="0 0 0 0 0 0 0 0 0 0 0 0 0 0 0 0 0 0 0.25 0"/>
<feBlend mode="normal" in2="BackgroundImageFix" result="effect1_dropShadow_88_163"/>
<feBlend mode="normal" in="SourceGraphic" in2="effect1_dropShadow_88_163" result="shape"/>
</filter>
<radialGradient id="paint0_angular_88_163" cx="0" cy="0" r="1" gradientUnits="userSpaceOnUse" gradientTransform="translate(100 109) rotate(90) scale(100)">
<stop offset="0.40625" stop-color="#FF9700"/>
<stop offset="1" stop-color="#FBB044"/>
</radialGradient>
</defs>
</svg>
