<svg width="200" height="200" viewBox="0 0 200 200" fill="none" xmlns="http://www.w3.org/2000/svg">
<path d="M100 200C73.4783 200 48.043 189.464 29.2893 170.711C10.5357 151.957 -7.37783e-07 126.522 0 100C7.37783e-07 73.4783 10.5357 48.043 29.2893 29.2893C48.043 10.5357 73.4784 -3.16267e-07 100 0V40C84.087 40 68.8258 46.3214 57.5736 57.5736C46.3214 68.8258 40 84.087 40 100C40 115.913 46.3214 131.174 57.5736 142.426C68.8258 153.679 84.087 160 100 160L100 200Z" fill="#383736"/>
<circle cx="98.4001" cy="20" r="20" fill="#FEA421"/>
<circle cx="98.4001" cy="20" r="20" fill="#FF9D0D"/>
<path d="M100 0C113.132 1.566e-07 126.136 2.58658 138.268 7.61205C150.401 12.6375 161.425 20.0035 170.711 29.2893C179.997 38.5752 187.362 49.5991 192.388 61.7317C197.413 73.8642 200 86.8678 200 100C200 113.132 197.413 126.136 192.388 138.268C187.362 150.401 179.997 161.425 170.711 170.711C161.425 179.997 150.401 187.363 138.268 192.388C126.136 197.413 113.132 200 100 200L100 160C107.879 160 115.681 158.448 122.961 155.433C130.241 152.417 136.855 147.998 142.426 142.426C147.998 136.855 152.417 130.241 155.433 122.961C158.448 115.681 160 107.879 160 100C160 92.1207 158.448 84.3185 155.433 77.039C152.417 69.7595 147.998 63.1451 142.426 57.5736C136.855 52.0021 130.241 47.5825 122.961 44.5672C115.681 41.5519 107.879 40 100 40V0Z" fill="url(#paint0_angular_88_35)"/>
<circle cx="100" cy="180" r="20" fill="#FCB043"/>
<defs>
<radialGradient id="paint0_angular_88_35" cx="0" cy="0" r="1" gradientUnits="userSpaceOnUse" gradientTransform="translate(100 100) rotate(90) scale(100)">
<stop offset="0.40625" stop-color="#FF9700"/>
<stop offset="1" stop-color="#FBB044"/>
</radialGradient>
</defs>
</svg>
