<svg width="200" height="200" viewBox="0 0 200 200" fill="none" xmlns="http://www.w3.org/2000/svg">
<path d="M100 200C73.4783 200 48.043 189.464 29.2893 170.711C10.5357 151.957 -7.37783e-07 126.522 0 100C7.37783e-07 73.4783 10.5357 48.043 29.2893 29.2893C48.043 10.5357 73.4784 -3.16267e-07 100 0V40C84.087 40 68.8258 46.3214 57.5736 57.5736C46.3214 68.8258 40 84.087 40 100C40 115.913 46.3214 131.174 57.5736 142.426C68.8258 153.679 84.087 160 100 160L100 200Z" fill="#383736"/>
<circle cx="98.4001" cy="20" r="20" fill="#FEA421"/>
<circle cx="98.4001" cy="20" r="20" fill="#FF9D0D"/>
<path d="M100 0C119.778 2.35852e-07 139.112 5.8649 155.557 16.853C172.002 27.8412 184.819 43.459 192.388 61.7317C199.957 80.0043 201.937 100.111 198.079 119.509C194.22 138.907 184.696 156.725 170.711 170.711C156.725 184.696 138.907 194.22 119.509 198.079C100.111 201.937 80.0043 199.957 61.7317 192.388C43.459 184.819 27.8412 172.002 16.853 155.557C5.8649 139.112 -4.71704e-07 119.778 0 100H40C40 111.867 43.5189 123.467 50.1118 133.334C56.7047 143.201 66.0754 150.892 77.039 155.433C88.0026 159.974 100.067 161.162 111.705 158.847C123.344 156.532 134.035 150.818 142.426 142.426C150.818 134.035 156.532 123.344 158.847 111.705C161.162 100.067 159.974 88.0026 155.433 77.039C150.892 66.0754 143.201 56.7047 133.334 50.1118C123.467 43.5189 111.867 40 100 40V0Z" fill="url(#paint0_angular_88_83)"/>
<circle cx="20" cy="100" r="20" fill="#FEA31F"/>
<defs>
<radialGradient id="paint0_angular_88_83" cx="0" cy="0" r="1" gradientUnits="userSpaceOnUse" gradientTransform="translate(100 100) rotate(90) scale(100)">
<stop offset="0.40625" stop-color="#FF9700"/>
<stop offset="1" stop-color="#FBB044"/>
</radialGradient>
</defs>
</svg>
